<svg width="165" height="164" viewBox="0 0 165 164" fill="none" xmlns="http://www.w3.org/2000/svg">
<path d="M58.4658 107.448C88.1368 107.448 112.19 83.3951 112.19 53.7241C112.19 24.0531 88.1368 0 58.4658 0C28.7948 0 4.7417 24.0531 4.7417 53.7241C4.7417 83.3951 28.7948 107.448 58.4658 107.448Z" fill="#F5DCB4"/>
<path d="M110.247 39.5863H106.437C105.227 39.5863 104.182 38.8037 103.778 37.6634C96.5258 17.2041 75.8211 3.11165 52.2938 6.04027C30.5469 8.74755 13.1081 26.4637 10.7 48.2459C7.49397 77.247 30.1132 101.793 58.4653 101.793C61.2142 101.793 63.8984 101.537 66.5154 101.079C68.2249 100.78 69.7755 102.125 69.7755 103.861V106.232C94.0113 101.035 112.189 79.5119 112.189 53.7242C112.19 48.8231 111.476 44.0982 110.247 39.5863Z" fill="#EBC9A0"/>
<path d="M58.4656 96.1378C81.8901 96.1378 100.879 77.1484 100.879 53.7239C100.879 30.2994 81.8901 11.3101 58.4656 11.3101C35.0411 11.3101 16.0518 30.2994 16.0518 53.7239C16.0518 77.1484 35.0411 96.1378 58.4656 96.1378Z" fill="white"/>
<path d="M58.4655 65.0345C64.712 65.0345 69.7757 59.9708 69.7757 53.7243C69.7757 47.4778 64.712 42.4141 58.4655 42.4141C52.219 42.4141 47.1553 47.4778 47.1553 53.7243C47.1553 59.9708 52.219 65.0345 58.4655 65.0345Z" fill="#E4EAF8"/>
<path d="M137.638 45.2417H81.0858C77.9627 45.2417 75.4307 47.7734 75.4307 50.8968V158.345C75.4307 161.468 77.9627 164 81.0858 164H154.603C157.726 164 160.258 161.468 160.258 158.345V67.8625L137.638 45.2417Z" fill="#E4EAF8"/>
<path d="M137.638 45.2412V62.2069C137.638 65.3299 140.17 67.862 143.293 67.862H160.259L137.638 45.2412Z" fill="#D5DCED"/>
<path d="M146.121 110.276H120.672C119.11 110.276 117.845 109.01 117.845 107.448C117.845 105.887 119.109 104.621 120.672 104.621H146.121C147.683 104.621 148.948 105.887 148.948 107.448C148.948 109.01 147.683 110.276 146.121 110.276Z" fill="#707487"/>
<path d="M140.466 121.586H120.672C119.11 121.586 117.845 120.32 117.845 118.758C117.845 117.197 119.109 115.931 120.672 115.931H140.466C142.028 115.931 143.293 117.197 143.293 118.758C143.293 120.32 142.028 121.586 140.466 121.586Z" fill="#959CB5"/>
<path d="M98.0519 121.586C97.3283 121.586 96.6048 121.31 96.0529 120.758L87.57 112.275C86.4656 111.171 86.4656 109.381 87.57 108.276C88.6745 107.172 90.4641 107.172 91.5685 108.276L98.0519 114.761L107.363 105.449C108.468 104.345 110.257 104.345 111.362 105.449C112.466 106.554 112.466 108.343 111.362 109.448L100.051 120.758C99.4988 121.31 98.7752 121.586 98.0519 121.586Z" fill="#464655"/>
<path d="M146.121 82.0002H120.672C119.11 82.0002 117.845 80.734 117.845 79.1724C117.845 77.6109 119.109 76.3447 120.672 76.3447H146.121C147.683 76.3447 148.948 77.6109 148.948 79.1724C148.948 80.734 147.683 82.0002 146.121 82.0002Z" fill="#707487"/>
<path d="M140.466 93.3102H120.672C119.11 93.3102 117.845 92.044 117.845 90.4825C117.845 88.921 119.109 87.6548 120.672 87.6548H140.466C142.028 87.6548 143.293 88.921 143.293 90.4825C143.293 92.044 142.028 93.3102 140.466 93.3102Z" fill="#959CB5"/>
<path d="M98.0519 93.3102C97.3283 93.3102 96.6048 93.0341 96.0529 92.4819L87.57 83.9991C86.4656 82.8946 86.4656 81.1051 87.57 80.0006C88.6745 78.8962 90.4641 78.8962 91.5685 80.0006L98.0519 86.4847L107.363 77.1735C108.468 76.0691 110.257 76.0691 111.362 77.1735C112.466 78.278 112.466 80.0676 111.362 81.172L100.051 92.4822C99.4988 93.0345 98.7752 93.3102 98.0519 93.3102Z" fill="#464655"/>
<path d="M146.121 138.552H120.672C119.11 138.552 117.845 137.286 117.845 135.724C117.845 134.163 119.109 132.896 120.672 132.896H146.121C147.683 132.896 148.948 134.163 148.948 135.724C148.948 137.286 147.683 138.552 146.121 138.552Z" fill="#707487"/>
<path d="M140.466 149.862H120.672C119.11 149.862 117.845 148.596 117.845 147.034C117.845 145.473 119.109 144.207 120.672 144.207H140.466C142.028 144.207 143.293 145.473 143.293 147.034C143.293 148.596 142.028 149.862 140.466 149.862Z" fill="#959CB5"/>
<path d="M98.0519 149.862C97.3283 149.862 96.6048 149.586 96.0529 149.034L87.57 140.551C86.4656 139.446 86.4656 137.657 87.57 136.552C88.6745 135.448 90.4641 135.448 91.5685 136.552L98.0519 143.036L107.363 133.725C108.468 132.621 110.257 132.621 111.362 133.725C112.466 134.83 112.466 136.619 111.362 137.724L100.051 149.034C99.4988 149.586 98.7752 149.862 98.0519 149.862Z" fill="#464655"/>
<path d="M58.4658 56.5517C57.7422 56.5517 57.0186 56.2756 56.4667 55.7234L33.8459 33.1026C32.7415 31.9982 32.7415 30.2086 33.8459 29.1041C34.9503 27.9997 36.7399 27.9997 37.8444 29.1041L58.4654 49.7262L81.9146 26.2771C83.019 25.1726 84.8086 25.1726 85.913 26.2771C87.0175 27.3815 87.0175 29.1711 85.913 30.2755L60.4648 55.7237C59.9126 56.2756 59.189 56.5517 58.4658 56.5517Z" fill="#464655"/>
<path d="M126.328 65.0343H89.5689C88.0061 65.0343 86.7412 63.7681 86.7412 62.2066C86.7412 60.6451 88.0058 59.3789 89.5689 59.3789H126.328C127.89 59.3789 129.155 60.6451 129.155 62.2066C129.155 63.7681 127.89 65.0343 126.328 65.0343Z" fill="#707487"/>
<path d="M58.4657 59.3791C61.5889 59.3791 64.1208 56.8472 64.1208 53.724C64.1208 50.6007 61.5889 48.0688 58.4657 48.0688C55.3424 48.0688 52.8105 50.6007 52.8105 53.724C52.8105 56.8472 55.3424 59.3791 58.4657 59.3791Z" fill="#707487"/>
<path d="M28.0443 32.8965L23.2306 30.1162C22.1825 31.6774 21.2732 33.3328 20.4365 35.0314L25.2165 37.7922C25.6611 38.0504 26.1471 38.1717 26.6275 38.1717C27.6051 38.1717 28.5548 37.665 29.0798 36.7579C29.8608 35.4068 29.3973 33.6768 28.0443 32.8965Z" fill="#D5DCED"/>
<path d="M37.6368 23.3043C38.1614 24.2111 39.1115 24.7182 40.0891 24.7182C40.5696 24.7182 41.0555 24.5965 41.5001 24.3399C42.8531 23.5583 43.3172 21.8286 42.5356 20.4766L39.7745 15.6943C38.0753 16.5313 36.4189 17.441 34.8574 18.4897L37.6368 23.3043Z" fill="#D5DCED"/>
<path d="M16.1946 56.5514H21.7069C23.2697 56.5514 24.5346 55.2852 24.5346 53.7237C24.5346 52.1622 23.27 50.896 21.7069 50.896H16.1946C16.1325 51.8348 16.0518 52.7689 16.0518 53.7237C16.0518 54.6786 16.1322 55.6126 16.1946 56.5514Z" fill="#C7CFE2"/>
<path d="M58.4654 11.3101C57.5109 11.3101 56.5765 11.3908 55.6377 11.4529V16.9652C55.6377 18.5267 56.9023 19.7929 58.4654 19.7929C60.0285 19.7929 61.2931 18.5267 61.2931 16.9652V11.4529C60.354 11.3908 59.4199 11.3101 58.4654 11.3101Z" fill="#C7CFE2"/>
<path d="M25.2165 69.6556L20.4365 72.4163C21.2732 74.115 22.1825 75.7707 23.2306 77.3315L28.0443 74.5512C29.3973 73.7713 29.8614 72.0409 29.0798 70.6895C28.298 69.3369 26.5638 68.8702 25.2165 69.6556Z" fill="#D5DCED"/>
<path d="M41.4997 83.109C40.1496 82.3261 38.418 82.7903 37.6364 84.1445L34.8564 88.9588C36.418 90.0072 38.0743 90.9172 39.7736 91.7542L42.5347 86.9719C43.3169 85.6202 42.8527 83.8902 41.4997 83.109Z" fill="#D5DCED"/>
<path d="M58.4659 87.6553C56.9031 87.6553 55.6382 88.9215 55.6382 90.483V95.9952C56.577 96.0574 57.5111 96.1381 58.4659 96.1381C59.4208 96.1381 60.3548 96.0574 61.2936 95.9952V90.483C61.2933 88.9215 60.0287 87.6553 58.4659 87.6553Z" fill="#C7CFE2"/>
<path d="M77.1563 15.6948L74.3952 20.4771C73.6137 21.8288 74.0778 23.5588 75.4308 24.3404C75.8754 24.5973 76.3613 24.7187 76.8418 24.7187C77.8194 24.7187 78.7691 24.2119 79.2941 23.3048L82.0741 18.4905C80.5119 17.4415 78.8556 16.5315 77.1563 15.6948Z" fill="#D5DCED"/>
<path d="M91.7141 37.7927L96.4941 35.0319C95.6575 33.3333 94.7481 31.6776 93.7 30.1167L88.8864 32.897C87.5334 33.677 87.0692 35.4073 87.8508 36.7587C88.3755 37.6655 89.3255 38.1726 90.3031 38.1726C90.7839 38.1722 91.2698 38.0508 91.7141 37.7927Z" fill="#D5DCED"/>
</svg>
