<svg width="42" height="42" viewBox="0 0 42 42" fill="none" xmlns="http://www.w3.org/2000/svg">
<path fill-rule="evenodd" clip-rule="evenodd" d="M17.0206 8.06382C16.9981 8.08381 16.9756 8.10387 16.953 8.12397L9.92879 14.3677C8.61814 15.5326 7.53164 16.4984 6.78564 17.375C6.00158 18.2964 5.4433 19.2884 5.4433 20.5159C5.4433 21.7434 6.00158 22.7355 6.78562 23.6567C7.53162 24.5335 8.61812 25.4993 9.92879 26.6641L16.953 32.9079C16.9756 32.928 16.9981 32.948 17.0206 32.9681C17.5884 33.4728 18.1182 33.944 18.576 34.2462C19.0256 34.5431 19.843 34.9742 20.7587 34.5629C21.6744 34.1517 21.8953 33.2544 21.9722 32.7212C22.0503 32.1783 22.0503 31.4691 22.0501 30.7094C22.0501 30.6793 22.0501 30.6491 22.0501 30.6189V27.8739C24.5903 28.0491 27.1642 28.7236 29.4158 29.8209C32.0635 31.1109 34.178 32.9402 35.3255 35.1261C35.6062 35.6607 36.2154 35.9348 36.8018 35.7903C37.3881 35.6456 37.8001 35.1198 37.8001 34.5158C37.8001 26.2542 35.3828 20.8748 31.9262 17.5676C28.9133 14.6849 25.2415 13.502 22.0501 13.2545V10.4129C22.0501 10.3827 22.0501 10.3525 22.0501 10.3224C22.0503 9.56268 22.0503 8.85361 21.9722 8.31068C21.8953 7.77749 21.6744 6.88012 20.7587 6.46889C19.843 6.05767 19.0256 6.4888 18.576 6.78559C18.1182 7.08785 17.5884 7.559 17.0206 8.06382ZM19.4197 9.4506C19.2219 9.62017 18.9856 9.82931 18.6969 10.0859L11.7454 16.265C10.3435 17.5112 9.3976 18.3561 8.7848 19.0762C8.19629 19.7678 8.0683 20.1717 8.0683 20.5159C8.0683 20.8601 8.19627 21.264 8.78478 21.9557C9.3976 22.6758 10.3435 23.5206 11.7454 24.7668L18.6969 30.946C18.9856 31.2024 19.2219 31.4116 19.4197 31.5813C19.4244 31.3207 19.4251 31.0053 19.4251 30.6189V26.5159C19.4251 25.791 20.0127 25.2034 20.7376 25.2034C24.0846 25.2034 27.5626 25.9978 30.5656 27.4611C32.1736 28.2446 33.6704 29.2329 34.9407 30.4154C34.2954 25.083 32.3884 21.6428 30.1116 19.4643C27.2764 16.7516 23.6944 15.8284 20.7376 15.8284C20.0127 15.8284 19.4251 15.2408 19.4251 14.5159V10.4129C19.4251 10.0267 19.4244 9.71115 19.4197 9.4506Z" fill="#003F91"/>
</svg>
