<svg width="30" height="30" viewBox="0 0 30 30" fill="none" xmlns="http://www.w3.org/2000/svg">
<path d="M11.6727 19.9881C15.6182 19.7689 18.75 16.5004 18.75 12.5C18.75 8.35786 15.3921 5 11.25 5C7.10786 5 3.75 8.35786 3.75 12.5C3.75 13.9759 4.17617 15.3521 4.91236 16.5125L4.38233 18.1025L4.38147 18.1049C4.17847 18.7139 4.07693 19.0186 4.14923 19.2214C4.21224 19.398 4.35211 19.5374 4.52881 19.6004C4.7309 19.6724 5.03344 19.5716 5.63836 19.3699L5.64698 19.3674L7.23755 18.8373C8.39788 19.5735 9.77419 19.9997 11.2501 19.9997C11.3919 19.9997 11.5328 19.9959 11.6727 19.9881ZM11.6727 19.9881C11.6726 19.9878 11.6728 19.9884 11.6727 19.9881ZM11.6727 19.9881C12.6989 22.9074 15.4801 25.0003 18.7501 25.0003C20.226 25.0003 21.6021 24.5735 22.7624 23.8372L24.3525 24.3674L24.3556 24.368C24.9646 24.5709 25.2698 24.6726 25.4725 24.6004C25.6493 24.5374 25.7874 24.398 25.8504 24.2214C25.9227 24.0182 25.8215 23.7132 25.6179 23.1026L25.0879 21.5125L25.2654 21.2182C25.8922 20.1224 26.2494 18.8529 26.2494 17.5C26.2494 13.3579 22.8921 10 18.75 10L18.4693 10.0052L18.3276 10.0121" stroke="#003F91" stroke-width="5" stroke-linecap="round" stroke-linejoin="round"/>
</svg>
