<svg width="30" height="30" viewBox="0 0 30 30" fill="none" xmlns="http://www.w3.org/2000/svg">
<path fill-rule="evenodd" clip-rule="evenodd" d="M23.125 1.5625C23.6427 1.5625 24.0625 1.98223 24.0625 2.5V5.9375H27.5C28.0177 5.9375 28.4375 6.35723 28.4375 6.875C28.4375 7.39277 28.0177 7.8125 27.5 7.8125H24.0625V11.25C24.0625 11.7677 23.6427 12.1875 23.125 12.1875C22.6072 12.1875 22.1875 11.7677 22.1875 11.25V7.8125H18.75C18.2323 7.8125 17.8125 7.39277 17.8125 6.875C17.8125 6.35723 18.2323 5.9375 18.75 5.9375H22.1875V2.5C22.1875 1.98223 22.6072 1.5625 23.125 1.5625Z" fill="#003F91"/>
<path fill-rule="evenodd" clip-rule="evenodd" d="M15 1.5625H14.9283C12.0428 1.56248 9.7815 1.56248 8.01713 1.79968C6.21121 2.04248 4.78618 2.54916 3.66767 3.66767C2.54916 4.78618 2.04248 6.21121 1.79968 8.01713C1.56248 9.7815 1.56248 12.0428 1.5625 14.9283V15.0717C1.56248 17.9572 1.56248 20.2185 1.79968 21.9828C2.04248 23.7887 2.54916 25.2138 3.66767 26.3323C4.78618 27.4508 6.21121 27.9575 8.01713 28.2003C9.7815 28.4375 12.0428 28.4375 14.9283 28.4375H15.0717C17.9572 28.4375 20.2185 28.4375 21.9828 28.2003C23.7887 27.9575 25.2138 27.4508 26.3323 26.3323C27.4508 25.2138 27.9575 23.7887 28.2003 21.9828C28.4375 20.2185 28.4375 17.9572 28.4375 15.0717V15C28.4375 14.4823 28.0177 14.0625 27.5 14.0625C26.9823 14.0625 26.5625 14.4823 26.5625 15C26.5625 17.9727 26.5605 20.1081 26.342 21.733C26.3334 21.7972 26.3245 21.8602 26.3153 21.9223L22.8477 18.8016C21.2235 17.3397 18.8046 17.1942 17.0167 18.4506L16.6439 18.7126C16.0227 19.1492 15.1776 19.076 14.6407 18.5391L9.2785 13.1769C7.85926 11.7577 5.58267 11.6818 4.07214 13.0035L3.43872 13.5577C3.44441 11.3174 3.47655 9.61625 3.65797 8.26697C3.87281 6.66897 4.28143 5.70557 4.99349 4.99349C5.70557 4.28143 6.66897 3.87281 8.26697 3.65797C9.89192 3.43949 12.0273 3.4375 15 3.4375C15.5177 3.4375 15.9375 3.01777 15.9375 2.5C15.9375 1.98223 15.5177 1.5625 15 1.5625ZM3.65797 21.733C3.87281 23.331 4.28143 24.2944 4.99349 25.0065C5.70557 25.7186 6.66897 26.1272 8.26697 26.342C9.89192 26.5605 12.0273 26.5625 15 26.5625C17.9727 26.5625 20.1081 26.5605 21.733 26.342C23.331 26.1272 24.2944 25.7186 25.0065 25.0065C25.3109 24.7021 25.5599 24.3517 25.7619 23.9255C25.7133 23.8957 25.6667 23.8612 25.6228 23.8217L21.5934 20.1952C20.6188 19.3181 19.1675 19.2308 18.0948 19.9847L17.7221 20.2467C16.3553 21.2071 14.496 21.0461 13.3148 19.8649L7.95269 14.5027C7.23143 13.7815 6.07448 13.7429 5.30683 14.4147L3.43798 16.0498C3.4412 18.4855 3.46611 20.306 3.65797 21.733Z" fill="#003F91"/>
</svg>
