<svg width="25" height="25" viewBox="0 0 25 25" fill="none" xmlns="http://www.w3.org/2000/svg">
<g clip-path="url(#clip0_1551_70026)">
<path d="M20.8333 5.2085C21.4086 5.2085 21.875 5.67487 21.875 6.25016C21.875 6.82545 21.4086 7.29183 20.8333 7.29183H19.7918L19.7891 7.36609L18.8165 20.9819C18.7386 22.0721 17.8315 22.9168 16.7384 22.9168H8.26162C7.16864 22.9168 6.26146 22.0721 6.18358 20.9819L5.21102 7.36609C5.20925 7.34118 5.20835 7.31642 5.20833 7.29183H4.16667C3.59137 7.29183 3.125 6.82545 3.125 6.25016C3.125 5.67487 3.59137 5.2085 4.16667 5.2085H20.8333ZM17.7057 7.29183H7.29436L8.26162 20.8335H16.7384L17.7057 7.29183ZM14.5833 2.0835C15.1586 2.0835 15.625 2.54987 15.625 3.12516C15.625 3.70045 15.1586 4.16683 14.5833 4.16683H10.4167C9.84137 4.16683 9.375 3.70045 9.375 3.12516C9.375 2.54987 9.84137 2.0835 10.4167 2.0835H14.5833Z" fill="#FF0000"/>
</g>
<defs>
<clipPath id="clip0_1551_70026">
<rect width="25" height="25" fill="white"/>
</clipPath>
</defs>
</svg>
