<svg width="47" height="47" viewBox="0 0 47 47" fill="none" xmlns="http://www.w3.org/2000/svg">
<path fill-rule="evenodd" clip-rule="evenodd" d="M22.9497 2.40235H25.9425C26.7385 2.40235 27.3838 3.04762 27.3838 3.8436C27.3838 4.63958 26.7385 5.28485 25.9425 5.28485H23.06C18.4899 5.28485 15.2072 5.28791 12.7091 5.62378C10.2524 5.95406 8.77137 6.58224 7.67668 7.67692C6.58199 8.77162 5.95381 10.2527 5.62353 12.7093C5.28766 15.2074 5.2846 18.4902 5.2846 23.0603C5.2846 27.6304 5.28766 30.9131 5.62353 33.4111C5.95381 35.8678 6.58199 37.3489 7.67668 38.4436C8.77137 39.5383 10.2524 40.1664 12.7091 40.4967C15.2072 40.8326 18.4899 40.8357 23.06 40.8357C27.6301 40.8357 30.9128 40.8326 33.4109 40.4967C35.8675 40.1664 37.3486 39.5383 38.4433 38.4436C39.538 37.3489 40.1662 35.8678 40.4964 33.4111C40.8324 30.9131 40.8354 27.6304 40.8354 23.0603V20.1778C40.8354 19.3818 41.4807 18.7365 42.2767 18.7365C43.0726 18.7365 43.7179 19.3818 43.7179 20.1778V23.1706C43.7179 27.6065 43.7179 31.0828 43.3533 33.7952C42.98 36.5715 42.2011 38.7623 40.4816 40.4818C38.7621 42.2013 36.5713 42.9803 33.795 43.3536C31.0826 43.7182 27.6063 43.7182 23.1703 43.7182H22.9497C18.5137 43.7182 15.0374 43.7182 12.325 43.3536C9.54871 42.9803 7.35798 42.2013 5.63844 40.4818C3.91892 38.7623 3.13999 36.5715 2.76673 33.7952C2.40206 31.0828 2.40207 27.6065 2.4021 23.1706V22.95C2.40207 18.514 2.40206 15.0377 2.76673 12.3253C3.13999 9.54896 3.91892 7.35822 5.63844 5.63869C7.35798 3.91917 9.54871 3.14024 12.325 2.76698C15.0374 2.40231 18.5137 2.40232 22.9497 2.40235ZM32.2274 4.37381C34.856 1.74519 39.1178 1.74519 41.7464 4.37381C44.3751 7.00243 44.3751 11.2643 41.7464 13.8929L28.9711 26.6684C28.2576 27.382 27.8106 27.8289 27.3119 28.2179C26.7244 28.6761 26.0888 29.0689 25.4162 29.3895C24.8452 29.6616 24.2456 29.8614 23.2883 30.1804L17.7068 32.041C16.6762 32.3844 15.5401 32.1163 14.7721 31.3482C14.004 30.5801 13.7358 29.444 14.0793 28.4135L15.9399 22.832C16.2589 21.8747 16.4587 21.275 16.7308 20.704C17.0513 20.0315 17.4441 19.3959 17.9024 18.8084C18.2913 18.3096 18.7384 17.8627 19.452 17.1492L32.2274 4.37381ZM39.7082 6.41205C38.2053 4.90911 35.7685 4.90911 34.2656 6.41205L33.5419 7.13578C33.5855 7.32001 33.6465 7.53949 33.7314 7.7843C34.0069 8.57805 34.528 9.62342 35.5124 10.6079C36.4968 11.5923 37.5422 12.1134 38.336 12.3888C38.5808 12.4737 38.8003 12.5348 38.9845 12.5784L39.7082 11.8547C41.2112 10.3517 41.2112 7.91498 39.7082 6.41205ZM36.7137 14.8491C35.7223 14.4228 34.5672 13.7392 33.4742 12.6461C32.3811 11.553 31.6975 10.3981 31.2712 9.40654L21.5564 19.1214C20.7559 19.9218 20.4421 20.2391 20.1752 20.5812C19.8458 21.0036 19.5634 21.4605 19.3329 21.9442C19.1462 22.3357 19.0027 22.7584 18.6448 23.8323L17.8149 26.3221L19.7982 28.3054L22.288 27.4755C23.3618 27.1175 23.7846 26.9739 24.1761 26.7874C24.6597 26.5569 25.1167 26.2744 25.5391 25.9451C25.8811 25.6782 26.1985 25.3643 26.9989 24.5639L36.7137 14.8491Z" fill="#003F91"/>
</svg>
