<svg width="25" height="25" viewBox="0 0 25 25" fill="none" xmlns="http://www.w3.org/2000/svg">
<path d="M15.625 12.4998H6.25M6.25 12.4998L8.33333 14.5832M6.25 12.4998L8.33333 10.4165" stroke="#003F91" stroke-width="3.125" stroke-linecap="round" stroke-linejoin="round"/>
<path d="M12.4998 22.8988C10.8816 22.8501 9.91646 22.6695 9.24844 22.0015C8.44804 21.2011 8.34758 19.9741 8.33496 17.7085M16.6665 22.9151C18.9321 22.9025 20.1591 22.8019 20.9595 22.0015C21.8748 21.0862 21.8748 19.6131 21.8748 16.6668V14.5835V10.4168V8.3335C21.8748 5.38721 21.8748 3.91408 20.9595 2.99879C20.0442 2.0835 18.5711 2.0835 15.6248 2.0835H14.5832C11.6368 2.0835 10.1637 2.0835 9.24844 2.99879C8.44804 3.79918 8.34758 5.02617 8.33496 7.29183" stroke="#003F91" stroke-width="3.125" stroke-linecap="round"/>
<path d="M3.125 9.89583V15.1042C3.125 17.5594 3.125 18.787 3.88774 19.5498C4.65049 20.3125 5.8781 20.3125 8.33333 20.3125M3.88774 5.45024C4.65049 4.6875 5.8781 4.6875 8.33333 4.6875" stroke="#003F91" stroke-width="3.125" stroke-linecap="round"/>
</svg>
