<svg width="30" height="30" viewBox="0 0 30 30" fill="none" xmlns="http://www.w3.org/2000/svg">
<path d="M12.5625 3.16212L5.03752 8.07462C2.62502 9.64962 2.62502 13.1746 5.03752 14.7496L12.5625 19.6621C13.9125 20.5496 16.1375 20.5496 17.4875 19.6621L24.975 14.7496C27.375 13.1746 27.375 9.66212 24.975 8.08712L17.4875 3.17462C16.1375 2.27462 13.9125 2.27462 12.5625 3.16212Z" stroke="#003F91" stroke-width="3.75" stroke-linecap="round" stroke-linejoin="round"/>
<path d="M7.03752 16.3496L7.02502 22.2121C7.02502 23.7996 8.25002 25.4996 9.75002 25.9996L13.7375 27.3246C14.425 27.5496 15.5625 27.5496 16.2625 27.3246L20.25 25.9996C21.75 25.4996 22.975 23.7996 22.975 22.2121V16.4121" stroke="#003F91" stroke-width="3.75" stroke-linecap="round" stroke-linejoin="round"/>
<path d="M26.75 18.75V11.25" stroke="#003F91" stroke-width="3.75" stroke-linecap="round" stroke-linejoin="round"/>
</svg>
